<svg width="232" height="33" viewBox="0 0 232 33" fill="none" xmlns="http://www.w3.org/2000/svg">
  <path d="M0.59375 3.03125C1.58333 3.26562 2.46875 3.44792 3.25 3.57812C4.05729 3.68229 4.73438 3.76042 5.28125 3.8125C5.93229 3.89062 6.50521 3.91667 7 3.89062C7.625 3.86458 8.40625 3.77344 9.34375 3.61719C10.2812 3.46094 11.2708 3.30469 12.3125 3.14844C13.3542 2.99219 14.3828 2.86198 15.3984 2.75781C16.4141 2.65365 17.2995 2.64062 18.0547 2.71875C18.8099 2.79688 19.6042 2.97917 20.4375 3.26562C21.2708 3.52604 22.0521 3.89062 22.7812 4.35938C23.5104 4.80208 24.1354 5.34896 24.6562 6C25.2031 6.65104 25.5417 7.40625 25.6719 8.26562C25.8021 9.09896 25.724 9.9974 25.4375 10.9609C25.151 11.8984 24.6953 12.8229 24.0703 13.7344C23.4453 14.6198 22.6641 15.4401 21.7266 16.1953C20.7891 16.9505 19.7474 17.5625 18.6016 18.0312C17.6901 18.3698 16.7005 18.6302 15.6328 18.8125C14.7214 18.9688 13.6536 19.0729 12.4297 19.125C11.2318 19.151 9.95573 19.0208 8.60156 18.7344C8.41927 19.4896 8.3151 20.1927 8.28906 20.8438C8.28906 21.4688 8.3151 22.0286 8.36719 22.5234C8.44531 23.0964 8.54948 23.6172 8.67969 24.0859C8.83594 24.5547 9.03125 25.1016 9.26562 25.7266C9.47396 26.2474 9.70833 26.8854 9.96875 27.6406C10.2552 28.3698 10.5938 29.1901 10.9844 30.1016C10.5156 30.1016 10.0599 30.1146 9.61719 30.1406C9.17448 30.1406 8.77083 30.1536 8.40625 30.1797C7.98958 30.2057 7.59896 30.2318 7.23438 30.2578C6.81771 30.2839 6.34896 30.3359 5.82812 30.4141C5.38542 30.4661 4.82552 30.5443 4.14844 30.6484C3.4974 30.7526 2.75521 30.8828 1.92188 31.0391C2.46875 30.2578 2.89844 29.5417 3.21094 28.8906C3.54948 28.2135 3.79688 27.6276 3.95312 27.1328C4.13542 26.5599 4.2526 26.0391 4.30469 25.5703C4.33073 25.1797 4.33073 24.4896 4.30469 23.5C4.30469 22.5104 4.29167 21.3646 4.26562 20.0625C4.23958 18.7604 4.20052 17.3932 4.14844 15.9609C4.09635 14.5286 4.03125 13.1875 3.95312 11.9375C3.875 10.6615 3.78385 9.56771 3.67969 8.65625C3.60156 7.74479 3.52344 7.14583 3.44531 6.85938C3.34115 6.52083 3.15885 6.15625 2.89844 5.76562C2.6901 5.42708 2.39062 5.03646 2 4.59375C1.63542 4.125 1.16667 3.60417 0.59375 3.03125ZM8.67969 10.7266C8.65365 10.987 8.64062 11.2604 8.64062 11.5469C8.64062 12.0938 8.67969 12.7969 8.75781 13.6562C8.9401 14.099 9.16146 14.4635 9.42188 14.75C9.70833 15.0365 10.0078 15.2578 10.3203 15.4141C10.6589 15.5703 10.9974 15.6745 11.3359 15.7266C11.6745 15.7786 12.013 15.8047 12.3516 15.8047C13.1328 15.7786 13.9531 15.5964 14.8125 15.2578C15.9583 14.763 16.7656 14.0599 17.2344 13.1484C17.7031 12.237 17.9505 11.2995 17.9766 10.3359C18.0026 9.3724 17.8333 8.48698 17.4688 7.67969C17.1302 6.8724 16.7135 6.32552 16.2188 6.03906C15.8021 5.85677 15.2682 5.77865 14.6172 5.80469C14.0443 5.83073 13.3281 5.97396 12.4688 6.23438C11.6094 6.49479 10.5547 6.96354 9.30469 7.64062C9.17448 8.10938 9.07031 8.52604 8.99219 8.89062C8.91406 9.25521 8.84896 9.58073 8.79688 9.86719C8.74479 10.1797 8.70573 10.4661 8.67969 10.7266ZM25.5156 12.2891C26.0104 12.3151 26.4531 12.3281 26.8438 12.3281C27.2604 12.3021 27.612 12.276 27.8984 12.25C28.237 12.224 28.5365 12.1979 28.7969 12.1719C29.1875 12.1198 29.5911 12.0547 30.0078 11.9766C30.3724 11.9245 30.75 11.8594 31.1406 11.7812C31.5573 11.6771 31.9609 11.5599 32.3516 11.4297C32.1953 11.8203 32.0651 12.1589 31.9609 12.4453C31.8568 12.7318 31.7786 12.9792 31.7266 13.1875C31.6484 13.4219 31.6094 13.6172 31.6094 13.7734C31.5833 13.9557 31.5703 14.1771 31.5703 14.4375C31.5443 14.8802 31.5443 15.5964 31.5703 16.5859C32.9245 15.4141 34.0573 14.5026 34.9688 13.8516C35.9062 13.2005 36.6484 12.6927 37.1953 12.3281C37.8464 11.9115 38.3542 11.638 38.7188 11.5078C39.6823 11.3516 40.5286 11.5729 41.2578 12.1719C41.5703 12.4323 41.8698 12.7839 42.1562 13.2266C42.4427 13.6432 42.6901 14.2031 42.8984 14.9062C43.1068 15.6094 43.263 16.4557 43.3672 17.4453C43.4714 18.4089 43.4844 19.5677 43.4062 20.9219C42.8594 20.974 42.3646 21.026 41.9219 21.0781C41.5052 21.1302 41.1536 21.1693 40.8672 21.1953C40.5286 21.2474 40.2161 21.2734 39.9297 21.2734L38.875 21.3906C38.5104 21.4427 38.0547 21.4948 37.5078 21.5469C36.987 21.5729 36.349 21.625 35.5938 21.7031C36.6875 20.8177 37.3906 20.0495 37.7031 19.3984C38.0417 18.7214 38.1849 18.1615 38.1328 17.7188C38.0807 17.224 37.8464 16.7943 37.4297 16.4297C36.9349 16.1432 36.401 16.0391 35.8281 16.1172C35.3333 16.1693 34.7604 16.3906 34.1094 16.7812C33.4583 17.1719 32.7682 17.901 32.0391 18.9688C32.0911 20.6354 32.1432 22.0156 32.1953 23.1094C32.2734 24.2031 32.3385 25.0885 32.3906 25.7656C32.4688 26.5469 32.5339 27.1589 32.5859 27.6016C32.6641 27.9922 32.8203 28.4089 33.0547 28.8516C33.237 29.2161 33.4974 29.6198 33.8359 30.0625C34.1745 30.5052 34.6172 30.9479 35.1641 31.3906C34.0182 31.3385 33.0807 31.3385 32.3516 31.3906C31.9089 31.4167 31.5182 31.4427 31.1797 31.4688C30.8151 31.5208 30.4245 31.5729 30.0078 31.625C29.6432 31.6771 29.2135 31.7292 28.7188 31.7812C28.25 31.8594 27.7292 31.9375 27.1562 32.0156C27.3646 31.7292 27.5339 31.3906 27.6641 31C27.7943 30.6354 27.8984 30.2839 27.9766 29.9453C28.0807 29.5547 28.1589 29.151 28.2109 28.7344C28.237 28.3698 28.25 27.8229 28.25 27.0938C28.276 26.3646 28.263 25.5443 28.2109 24.6328C28.1849 23.6953 28.1458 22.7318 28.0938 21.7422C28.0417 20.7266 27.9766 19.776 27.8984 18.8906C27.8203 18.0052 27.7292 17.237 27.625 16.5859C27.5469 15.9089 27.4557 15.4401 27.3516 15.1797C27.2214 14.8672 27.0651 14.5547 26.8828 14.2422C26.7266 13.9557 26.5312 13.6562 26.2969 13.3438C26.0625 13.0052 25.8021 12.6536 25.5156 12.2891ZM55.5156 13.5C56.1927 13.5 56.8958 13.6302 57.625 13.8906C58.3542 14.125 59.0573 14.4375 59.7344 14.8281C60.4115 15.1927 61.0234 15.5964 61.5703 16.0391C62.1432 16.4557 62.612 16.8594 62.9766 17.25C63.6276 17.9531 64.0703 18.9036 64.3047 20.1016C64.5651 21.2734 64.6172 22.4844 64.4609 23.7344C64.3047 24.9583 63.9401 26.1172 63.3672 27.2109C62.7943 28.3047 62 29.112 60.9844 29.6328C60.2552 29.9974 59.5391 30.2839 58.8359 30.4922C58.1328 30.7005 57.4557 30.8568 56.8047 30.9609C56.1536 31.0651 55.5417 31.1172 54.9688 31.1172C54.3958 31.1172 53.901 31.1042 53.4844 31.0781C52.7031 31.026 51.8828 30.7526 51.0234 30.2578C50.1901 29.763 49.3958 29.151 48.6406 28.4219C47.9115 27.6927 47.2865 26.8984 46.7656 26.0391C46.2448 25.1536 45.9323 24.3203 45.8281 23.5391C45.6719 22.4714 45.6458 21.3516 45.75 20.1797C45.8542 19.0078 46.2318 17.9271 46.8828 16.9375C47.5599 15.9479 48.5755 15.1276 49.9297 14.4766C51.3099 13.8255 53.1719 13.5 55.5156 13.5ZM54.2266 28.6562C54.513 28.7083 54.9036 28.6432 55.3984 28.4609C55.8932 28.2526 56.375 27.9271 56.8438 27.4844C57.3385 27.0417 57.7682 26.4818 58.1328 25.8047C58.5234 25.1016 58.7578 24.2552 58.8359 23.2656C58.9141 22.3021 58.9141 21.4167 58.8359 20.6094C58.7839 19.8021 58.6667 19.099 58.4844 18.5C58.3021 17.875 58.0938 17.3672 57.8594 16.9766C57.625 16.5859 57.3776 16.3125 57.1172 16.1562C56.6745 15.9219 56.1406 15.7396 55.5156 15.6094C54.8906 15.4531 54.3568 15.4792 53.9141 15.6875C53.7057 15.7917 53.4453 16.013 53.1328 16.3516C52.8203 16.6901 52.5078 17.1198 52.1953 17.6406C51.8828 18.1354 51.5964 18.7083 51.3359 19.3594C51.1016 20.0104 50.9323 20.6875 50.8281 21.3906C50.724 22.0938 50.6979 22.849 50.75 23.6562C50.8281 24.4635 50.9974 25.2318 51.2578 25.9609C51.5182 26.6641 51.8828 27.276 52.3516 27.7969C52.8464 28.2917 53.4714 28.5781 54.2266 28.6562ZM68.0547 32.4062C68.5755 32.0417 68.9922 31.5599 69.3047 30.9609C69.6172 30.362 69.8516 29.776 70.0078 29.2031C70.1901 28.526 70.3073 27.8229 70.3594 27.0938C70.3594 26.651 70.3333 25.9479 70.2812 24.9844C70.2292 24.1771 70.151 23.0703 70.0469 21.6641C69.9427 20.2318 69.7865 18.3828 69.5781 16.1172C69.2917 16.1432 69.0443 16.1693 68.8359 16.1953C68.6276 16.1953 68.4583 16.1953 68.3281 16.1953H67.8984C67.7682 16.1953 67.612 16.2083 67.4297 16.2344C67.2734 16.2604 67.0651 16.2995 66.8047 16.3516C66.5703 16.4036 66.2839 16.4688 65.9453 16.5469C65.9974 16.3385 66.0234 16.1302 66.0234 15.9219C66.0495 15.6875 66.0755 15.4792 66.1016 15.2969C66.1276 15.0885 66.1406 14.8932 66.1406 14.7109V14.125C66.1406 13.9427 66.1406 13.7474 66.1406 13.5391C66.1667 13.3307 66.1927 13.1224 66.2188 12.9141L69.3047 12.9922C69.1745 11.8724 69.1224 10.8698 69.1484 9.98438C69.1745 9.07292 69.2135 8.29167 69.2656 7.64062C69.3438 6.88542 69.4479 6.22135 69.5781 5.64844C69.7604 4.94531 70.0078 4.29427 70.3203 3.69531C70.6328 3.09635 71.0625 2.58854 71.6094 2.17188C72.1562 1.75521 72.8333 1.44271 73.6406 1.23438C74.4479 1 75.4245 0.882812 76.5703 0.882812C77.8724 0.908854 78.901 1.07812 79.6562 1.39062C80.4115 1.67708 80.9714 2.05469 81.3359 2.52344C81.7005 2.96615 81.9089 3.47396 81.9609 4.04688C82.013 4.61979 82 5.17969 81.9219 5.72656C81.8698 6.2474 81.7786 6.72917 81.6484 7.17188C81.5443 7.61458 81.5052 7.9401 81.5312 8.14844C81.5573 8.30469 81.6224 8.51302 81.7266 8.77344C81.8047 8.98177 81.9219 9.24219 82.0781 9.55469C82.2604 9.86719 82.5208 10.2188 82.8594 10.6094C82.4427 10.5573 82.026 10.5182 81.6094 10.4922C81.1927 10.4401 80.8021 10.401 80.4375 10.375C80.0208 10.349 79.6172 10.3359 79.2266 10.3359C78.8359 10.362 78.4323 10.388 78.0156 10.4141C77.651 10.4661 77.2604 10.5182 76.8438 10.5703C76.4271 10.5964 76.0365 10.6745 75.6719 10.8047C76.1927 10.4401 76.5964 10.0625 76.8828 9.67188C77.1693 9.28125 77.3906 8.92969 77.5469 8.61719C77.7292 8.2526 77.8464 7.88802 77.8984 7.52344C77.9245 7.08073 77.8984 6.58594 77.8203 6.03906C77.7682 5.46615 77.651 4.94531 77.4688 4.47656C77.2865 4.00781 77.0651 3.63021 76.8047 3.34375C76.5443 3.03125 76.2318 2.91406 75.8672 2.99219C75.3203 3.20052 74.8125 3.70833 74.3438 4.51562C73.9531 5.19271 73.5755 6.22135 73.2109 7.60156C72.8464 8.95573 72.612 10.8438 72.5078 13.2656C73.0026 13.3177 73.4583 13.3568 73.875 13.3828C74.3177 13.3828 74.7083 13.3958 75.0469 13.4219C75.4375 13.4479 75.8021 13.4609 76.1406 13.4609C76.4792 13.4609 76.8568 13.4479 77.2734 13.4219C77.638 13.3958 78.0677 13.3828 78.5625 13.3828C79.0573 13.3568 79.6042 13.3177 80.2031 13.2656L80.125 15.2969C79.6562 15.349 79.2005 15.388 78.7578 15.4141C78.3151 15.4401 77.9245 15.4661 77.5859 15.4922C77.1953 15.5182 76.8307 15.5443 76.4922 15.5703C76.1276 15.5964 75.75 15.6224 75.3594 15.6484C75.0208 15.6745 74.6302 15.7135 74.1875 15.7656C73.7708 15.8177 73.3281 15.8698 72.8594 15.9219C73.224 18.8646 73.5365 21.2474 73.7969 23.0703C74.0833 24.8672 74.3307 26.2604 74.5391 27.25C74.7474 28.4219 74.9297 29.2552 75.0859 29.75C75.2422 30.1667 75.4245 30.5312 75.6328 30.8438C75.8151 31.1302 76.0365 31.4036 76.2969 31.6641C76.5573 31.9245 76.8568 32.0938 77.1953 32.1719C76.362 32.0417 75.6458 31.9375 75.0469 31.8594C74.4479 31.8073 73.9401 31.7682 73.5234 31.7422C73.0547 31.7161 72.651 31.7031 72.3125 31.7031C72 31.7292 71.6224 31.7682 71.1797 31.8203C70.4245 31.8984 69.3828 32.0938 68.0547 32.4062ZM80.0469 13.5391L87.2344 13.6172C86.8177 15.2057 86.5052 16.5599 86.2969 17.6797C86.1146 18.7995 85.9974 19.737 85.9453 20.4922C85.8411 21.3516 85.8151 22.0807 85.8672 22.6797C85.9453 23.2266 86.0755 23.8125 86.2578 24.4375C86.4141 24.9583 86.6484 25.5573 86.9609 26.2344C87.2734 26.9115 87.6901 27.5885 88.2109 28.2656C87.8984 28.1615 87.5599 28.0833 87.1953 28.0312C86.8307 27.9792 86.4922 27.9401 86.1797 27.9141C85.8151 27.888 85.4505 27.888 85.0859 27.9141C84.7214 27.9401 84.3177 27.9792 83.875 28.0312C83.5104 28.0833 83.0677 28.1484 82.5469 28.2266C82.026 28.3047 81.4792 28.4089 80.9062 28.5391C81.2969 27.3672 81.5964 26.3516 81.8047 25.4922C82.0391 24.6328 82.2083 23.9167 82.3125 23.3438C82.4167 22.6667 82.4818 22.1198 82.5078 21.7031C82.5078 21.1823 82.5078 20.5964 82.5078 19.9453C82.5078 19.2682 82.5078 18.6172 82.5078 17.9922C82.5078 17.3672 82.4948 16.8203 82.4688 16.3516C82.4427 15.8568 82.3906 15.5443 82.3125 15.4141L81.9219 15.0234C81.7656 14.8932 81.5312 14.7109 81.2188 14.4766C80.9323 14.2161 80.5417 13.9036 80.0469 13.5391ZM82.8203 7.52344C83.3672 7.23698 83.9141 7.15885 84.4609 7.28906C85.0339 7.41927 85.4766 7.66667 85.7891 8.03125C86.1016 8.39583 86.2057 8.82552 86.1016 9.32031C86.0234 9.8151 85.6068 10.2969 84.8516 10.7656C84.0964 11.2083 83.4323 11.3646 82.8594 11.2344C82.2865 11.1042 81.8828 10.8307 81.6484 10.4141C81.4141 9.9974 81.375 9.51562 81.5312 8.96875C81.6875 8.39583 82.1172 7.91406 82.8203 7.52344ZM89.1484 6.39062C89.9297 6.46875 90.5807 6.53385 91.1016 6.58594C91.6484 6.63802 92.0911 6.67708 92.4297 6.70312C92.8203 6.72917 93.1328 6.74219 93.3672 6.74219C93.6016 6.76823 93.9141 6.76823 94.3047 6.74219C94.6432 6.71615 95.0859 6.6901 95.6328 6.66406C96.1797 6.61198 96.8698 6.53385 97.7031 6.42969C97.5208 6.6901 97.3776 6.92448 97.2734 7.13281C97.1693 7.3151 97.0781 7.48438 97 7.64062L96.7656 8.10938C96.7135 8.26562 96.6615 8.42188 96.6094 8.57812C96.5573 8.70833 96.5052 8.86458 96.4531 9.04688C96.4271 9.22917 96.401 9.42448 96.375 9.63281H102.391L101.844 12.7969L96.3359 12.4844C96.2057 13.8125 96.1146 14.8411 96.0625 15.5703C96.0104 16.2995 95.9583 16.8333 95.9062 17.1719L95.8281 17.875C95.75 18.8646 95.6719 19.9453 95.5938 21.1172C95.5156 22.263 95.4896 23.3307 95.5156 24.3203C95.5417 25.3099 95.6328 26.1432 95.7891 26.8203C95.9453 27.4714 96.2188 27.7969 96.6094 27.7969C97 27.7969 97.3646 27.6927 97.7031 27.4844C98.0417 27.276 98.3281 27.0286 98.5625 26.7422C98.8229 26.4557 99.0182 26.1693 99.1484 25.8828C99.2786 25.5703 99.3438 25.3359 99.3438 25.1797C99.3438 25.0234 99.3047 24.8411 99.2266 24.6328C99.0964 24.2422 98.862 23.7474 98.5234 23.1484C99.2786 23.3307 99.9427 23.513 100.516 23.6953C100.802 23.7995 101.062 23.9036 101.297 24.0078C101.557 24.112 101.857 24.2292 102.195 24.3594C102.482 24.4896 102.846 24.6458 103.289 24.8281C103.732 25.0104 104.253 25.2318 104.852 25.4922C104.279 25.5964 103.862 25.7656 103.602 26C103.445 26.1042 103.328 26.2214 103.25 26.3516C103.068 26.638 102.859 27.0286 102.625 27.5234C102.391 27.9922 102.039 28.4609 101.57 28.9297C101.102 29.3984 100.464 29.8151 99.6562 30.1797C98.875 30.5443 97.8203 30.7526 96.4922 30.8047C95.112 30.8568 94.0573 30.6224 93.3281 30.1016C92.625 29.5807 92.1042 28.9818 91.7656 28.3047C91.4531 27.6016 91.2708 26.9115 91.2188 26.2344C91.1667 25.5573 91.1276 25.1016 91.1016 24.8672C91.0755 24.6328 91.0755 24.0469 91.1016 23.1094C91.1276 22.1719 91.1667 21.1432 91.2188 20.0234C91.2708 18.8776 91.3229 17.7839 91.375 16.7422C91.4271 15.6745 91.4531 14.8932 91.4531 14.3984C91.4531 14.138 91.4661 13.8646 91.4922 13.5781C91.4922 13.3438 91.4922 13.0964 91.4922 12.8359C91.5182 12.5495 91.5312 12.276 91.5312 12.0156L85.8672 11.9766L85.6328 9.75L91.3359 9.90625C91.2839 9.61979 91.2188 9.35938 91.1406 9.125C91.0885 8.86458 91.0365 8.65625 90.9844 8.5C90.9062 8.31771 90.8281 8.16146 90.75 8.03125C90.6458 7.90104 90.5286 7.75781 90.3984 7.60156C90.2682 7.47135 90.099 7.30208 89.8906 7.09375C89.6823 6.88542 89.4349 6.65104 89.1484 6.39062ZM131.336 16C131.857 16.026 132.365 16.0391 132.859 16.0391C133.354 16.013 133.797 15.987 134.188 15.9609C134.63 15.9349 135.047 15.8958 135.438 15.8438L136.961 15.7266C137.482 15.7005 138.12 15.6745 138.875 15.6484C139.63 15.6224 140.542 15.5964 141.609 15.5703C141.036 15.7786 140.542 16.013 140.125 16.2734C139.734 16.5339 139.409 16.7682 139.148 16.9766C138.862 17.237 138.615 17.4844 138.406 17.7188C138.172 18.0312 137.924 18.4349 137.664 18.9297C137.43 19.3984 137.169 19.8932 136.883 20.4141C136.596 20.9349 136.284 21.4688 135.945 22.0156C135.633 22.5365 135.281 23.0052 134.891 23.4219C134.656 23.6823 134.409 23.9557 134.148 24.2422C133.94 24.5026 133.693 24.7891 133.406 25.1016C133.12 25.4141 132.833 25.7135 132.547 26C133.198 26.7292 133.784 27.3411 134.305 27.8359C134.852 28.3307 135.307 28.7214 135.672 29.0078C136.115 29.3724 136.492 29.6589 136.805 29.8672C137.117 30.0755 137.482 30.2839 137.898 30.4922C138.237 30.6745 138.641 30.8698 139.109 31.0781C139.578 31.2865 140.099 31.4948 140.672 31.7031C137.781 31.9115 135.542 32.0547 133.953 32.1328C132.365 32.237 131.206 32.3151 130.477 32.3672C129.617 32.4453 129.096 32.4844 128.914 32.4844C128.862 32.5104 128.914 32.4583 129.07 32.3281C129.227 32.224 129.409 32.0677 129.617 31.8594C129.826 31.6771 130.021 31.4557 130.203 31.1953C130.385 30.9609 130.477 30.7135 130.477 30.4531C130.477 30.2448 130.464 30.0234 130.438 29.7891C130.411 29.5807 130.372 29.3464 130.32 29.0859C130.268 28.8255 130.177 28.5521 130.047 28.2656C129.526 29.099 128.875 29.724 128.094 30.1406C127.312 30.5573 126.557 30.8568 125.828 31.0391C124.969 31.2474 124.096 31.3385 123.211 31.3125C120.815 31.1562 119.161 30.5443 118.25 29.4766C117.365 28.4089 116.987 26.8464 117.117 24.7891C117.221 23.9818 117.469 23.0964 117.859 22.1328C118.198 21.2995 118.693 20.349 119.344 19.2812C120.021 18.2135 120.971 17.0547 122.195 15.8047C120.893 14.2943 119.917 12.9401 119.266 11.7422C118.641 10.5182 118.198 9.47656 117.938 8.61719C117.651 7.60156 117.534 6.71615 117.586 5.96094C117.768 4.78906 118.107 3.91667 118.602 3.34375C119.122 2.77083 119.708 2.38021 120.359 2.17188C121.036 1.96354 121.753 1.85938 122.508 1.85938C123.263 1.85938 123.966 1.83333 124.617 1.78125C125.268 1.72917 126.01 1.74219 126.844 1.82031C127.703 1.8724 128.523 2.0026 129.305 2.21094C130.086 2.39323 130.776 2.66667 131.375 3.03125C131.974 3.36979 132.365 3.79948 132.547 4.32031C132.729 4.84115 132.859 5.34896 132.938 5.84375C133.016 6.3125 132.99 6.80729 132.859 7.32812C132.755 7.84896 132.508 8.40885 132.117 9.00781C131.727 9.58073 131.167 10.2188 130.438 10.9219C129.891 11.5208 129.344 12.0938 128.797 12.6406C128.328 13.1094 127.807 13.6042 127.234 14.125C126.661 14.6458 126.115 15.1016 125.594 15.4922C125.854 15.987 126.128 16.4688 126.414 16.9375C126.701 17.3802 126.961 17.7839 127.195 18.1484C127.482 18.5911 127.755 19.0078 128.016 19.3984C128.328 19.9193 128.654 20.4271 128.992 20.9219C129.357 21.4167 129.682 21.8464 129.969 22.2109C130.281 22.5755 130.542 22.862 130.75 23.0703C130.958 23.2786 131.089 23.3568 131.141 23.3047C131.167 23.2526 131.284 23.0052 131.492 22.5625C131.727 22.1198 131.974 21.625 132.234 21.0781C132.521 20.5052 132.768 19.9453 132.977 19.3984C133.211 18.8516 133.354 18.4479 133.406 18.1875C133.38 17.9792 133.302 17.7448 133.172 17.4844C133.042 17.276 132.833 17.0547 132.547 16.8203C132.286 16.5599 131.883 16.2865 131.336 16ZM123.758 12.6797C125.06 11.1953 126.01 9.9974 126.609 9.08594C127.208 8.17448 127.612 7.45833 127.82 6.9375C128.081 6.33854 128.146 5.89583 128.016 5.60938C127.781 5.32292 127.417 5.0625 126.922 4.82812C126.427 4.59375 125.893 4.47656 125.32 4.47656C124.747 4.45052 124.161 4.56771 123.562 4.82812C122.99 5.0625 122.495 5.53125 122.078 6.23438C121.922 6.57292 121.87 7.04167 121.922 7.64062C121.974 8.16146 122.117 8.82552 122.352 9.63281C122.612 10.4401 123.081 11.4557 123.758 12.6797ZM122.977 24.9062C123.315 25.401 123.732 25.7396 124.227 25.9219C124.669 26.1042 125.229 26.1432 125.906 26.0391C126.609 25.9349 127.456 25.5443 128.445 24.8672C128.055 24.3464 127.716 23.8776 127.43 23.4609C127.143 23.0182 126.896 22.6536 126.688 22.3672C126.453 22.0286 126.258 21.7422 126.102 21.5078C125.945 21.2734 125.75 20.987 125.516 20.6484C125.307 20.362 125.06 20.0104 124.773 19.5938C124.487 19.1771 124.148 18.6823 123.758 18.1094C122.924 19.099 122.391 20.1536 122.156 21.2734C121.948 22.3672 122.221 23.5781 122.977 24.9062Z" fill="black"/>
  <path d="M152 2.67969C152.755 2.8099 153.419 2.90104 153.992 2.95312C154.591 3.00521 155.086 3.04427 155.477 3.07031C155.945 3.09635 156.349 3.10938 156.688 3.10938C157.026 3.10938 157.508 3.08333 158.133 3.03125C158.654 2.97917 159.331 2.91406 160.164 2.83594C161.023 2.75781 162.078 2.6276 163.328 2.44531C162.964 2.54948 162.625 2.84896 162.312 3.34375C162.026 3.8125 161.766 4.32031 161.531 4.86719C161.245 5.51823 160.997 6.23438 160.789 7.01562C160.607 7.71875 160.372 8.68229 160.086 9.90625C159.826 11.1302 159.565 12.4583 159.305 13.8906C159.07 15.3229 158.888 16.7812 158.758 18.2656C158.628 19.724 158.602 21.0651 158.68 22.2891C158.784 23.513 159.031 24.5286 159.422 25.3359C159.812 26.1172 160.411 26.5339 161.219 26.5859C162.443 26.6901 163.458 26.7031 164.266 26.625C165.099 26.5208 165.776 26.3776 166.297 26.1953C166.818 26.013 167.221 25.8047 167.508 25.5703C167.794 25.3099 168.016 25.0625 168.172 24.8281C168.589 24.2292 169.018 23.4609 169.461 22.5234C169.904 21.5859 170.294 20.6875 170.633 19.8281C170.997 18.9688 171.297 18.2396 171.531 17.6406C171.766 17.0417 171.883 16.7552 171.883 16.7812C171.883 16.8333 171.87 17.1328 171.844 17.6797C171.844 18.2005 171.831 18.8385 171.805 19.5938C171.805 20.3229 171.792 21.0911 171.766 21.8984C171.766 22.7057 171.753 23.3958 171.727 23.9688C171.701 24.4375 171.674 24.9583 171.648 25.5312C171.622 26.026 171.596 26.612 171.57 27.2891C171.57 27.9661 171.544 28.7083 171.492 29.5156C170.398 29.4375 169.357 29.3854 168.367 29.3594C167.378 29.3333 166.505 29.3203 165.75 29.3203C164.865 29.3203 164.044 29.3333 163.289 29.3594C162.482 29.3854 161.544 29.4245 160.477 29.4766C159.565 29.5286 158.432 29.5938 157.078 29.6719C155.724 29.724 154.161 29.8021 152.391 29.9062C152.599 29.5417 152.768 29.2031 152.898 28.8906C153.055 28.5781 153.172 28.3177 153.25 28.1094C153.354 27.849 153.419 27.6276 153.445 27.4453C153.602 26.612 153.732 25.5573 153.836 24.2812C153.94 22.9792 154.018 21.599 154.07 20.1406C154.148 18.6823 154.188 17.1979 154.188 15.6875C154.214 14.151 154.214 12.7318 154.188 11.4297C154.161 10.1276 154.109 8.99479 154.031 8.03125C153.979 7.06771 153.901 6.40365 153.797 6.03906C153.667 5.6224 153.51 5.20573 153.328 4.78906C153.172 4.42448 152.977 4.0599 152.742 3.69531C152.534 3.30469 152.286 2.96615 152 2.67969ZM184.539 13.5C185.216 13.5 185.919 13.6302 186.648 13.8906C187.378 14.125 188.081 14.4375 188.758 14.8281C189.435 15.1927 190.047 15.5964 190.594 16.0391C191.167 16.4557 191.635 16.8594 192 17.25C192.651 17.9531 193.094 18.9036 193.328 20.1016C193.589 21.2734 193.641 22.4844 193.484 23.7344C193.328 24.9583 192.964 26.1172 192.391 27.2109C191.818 28.3047 191.023 29.112 190.008 29.6328C189.279 29.9974 188.562 30.2839 187.859 30.4922C187.156 30.7005 186.479 30.8568 185.828 30.9609C185.177 31.0651 184.565 31.1172 183.992 31.1172C183.419 31.1172 182.924 31.1042 182.508 31.0781C181.727 31.026 180.906 30.7526 180.047 30.2578C179.214 29.763 178.419 29.151 177.664 28.4219C176.935 27.6927 176.31 26.8984 175.789 26.0391C175.268 25.1536 174.956 24.3203 174.852 23.5391C174.695 22.4714 174.669 21.3516 174.773 20.1797C174.878 19.0078 175.255 17.9271 175.906 16.9375C176.583 15.9479 177.599 15.1276 178.953 14.4766C180.333 13.8255 182.195 13.5 184.539 13.5ZM183.25 28.6562C183.536 28.7083 183.927 28.6432 184.422 28.4609C184.917 28.2526 185.398 27.9271 185.867 27.4844C186.362 27.0417 186.792 26.4818 187.156 25.8047C187.547 25.1016 187.781 24.2552 187.859 23.2656C187.938 22.3021 187.938 21.4167 187.859 20.6094C187.807 19.8021 187.69 19.099 187.508 18.5C187.326 17.875 187.117 17.3672 186.883 16.9766C186.648 16.5859 186.401 16.3125 186.141 16.1562C185.698 15.9219 185.164 15.7396 184.539 15.6094C183.914 15.4531 183.38 15.4792 182.938 15.6875C182.729 15.7917 182.469 16.013 182.156 16.3516C181.844 16.6901 181.531 17.1198 181.219 17.6406C180.906 18.1354 180.62 18.7083 180.359 19.3594C180.125 20.0104 179.956 20.6875 179.852 21.3906C179.747 22.0938 179.721 22.849 179.773 23.6562C179.852 24.4635 180.021 25.2318 180.281 25.9609C180.542 26.6641 180.906 27.276 181.375 27.7969C181.87 28.2917 182.495 28.5781 183.25 28.6562ZM212.586 8.69531C212.352 9.26823 212.143 9.78906 211.961 10.2578C211.805 10.7266 211.661 11.1432 211.531 11.5078C211.401 11.9245 211.284 12.2891 211.18 12.6016C211.076 12.9661 210.958 13.3828 210.828 13.8516C210.698 14.2682 210.529 14.7891 210.32 15.4141C210.138 16.013 209.917 16.7292 209.656 17.5625C209.448 16.3125 209.07 15.3229 208.523 14.5938C207.977 13.8385 207.417 13.2526 206.844 12.8359C206.167 12.3672 205.438 12.0286 204.656 11.8203C203.25 11.5859 202.234 11.612 201.609 11.8984C200.984 12.1849 200.568 12.5495 200.359 12.9922C200.255 13.1745 200.138 13.4089 200.008 13.6953C199.904 13.9557 199.812 14.2292 199.734 14.5156C199.682 14.8021 199.669 15.0885 199.695 15.375C199.721 15.6615 199.839 15.8958 200.047 16.0781C200.177 16.2083 200.516 16.3906 201.062 16.625C201.609 16.8333 202.26 17.0807 203.016 17.3672C203.797 17.6276 204.617 17.9141 205.477 18.2266C206.362 18.5391 207.195 18.8516 207.977 19.1641C208.758 19.4766 209.435 19.7891 210.008 20.1016C210.581 20.4141 210.958 20.7005 211.141 20.9609C211.297 21.2214 211.466 21.5729 211.648 22.0156C211.857 22.4323 212 22.901 212.078 23.4219C212.182 23.9167 212.208 24.4375 212.156 24.9844C212.13 25.5052 211.987 26.026 211.727 26.5469C211.466 27.0677 211.049 27.5495 210.477 27.9922C209.93 28.4349 209.188 28.7995 208.25 29.0859C207.156 29.4245 206.102 29.5156 205.086 29.3594C204.07 29.2031 203.133 28.9688 202.273 28.6562C201.44 28.3438 200.711 28.0443 200.086 27.7578C199.461 27.4453 199.018 27.3151 198.758 27.3672C198.471 27.4193 198.146 27.5625 197.781 27.7969C197.417 28.0312 197.065 28.2786 196.727 28.5391C196.414 28.7734 196.141 28.9948 195.906 29.2031C195.672 29.3854 195.555 29.4505 195.555 29.3984C195.555 29.3464 195.594 29.1901 195.672 28.9297C195.776 28.6693 195.88 28.3568 195.984 27.9922C196.115 27.6016 196.232 27.1849 196.336 26.7422C196.466 26.2734 196.557 25.8307 196.609 25.4141C196.661 25.0755 196.727 24.6589 196.805 24.1641C196.857 23.7214 196.922 23.1875 197 22.5625C197.104 21.9115 197.221 21.1302 197.352 20.2188C197.482 20.8958 197.664 21.4818 197.898 21.9766C198.159 22.4714 198.406 22.901 198.641 23.2656C198.927 23.6823 199.201 24.0339 199.461 24.3203C199.852 24.6849 200.307 25.0234 200.828 25.3359C201.375 25.6484 201.922 25.9219 202.469 26.1562C203.016 26.3646 203.536 26.4948 204.031 26.5469C204.526 26.599 204.943 26.5469 205.281 26.3906C205.62 26.2344 205.906 25.9479 206.141 25.5312C206.401 25.1146 206.583 24.6589 206.688 24.1641C206.792 23.6693 206.831 23.2005 206.805 22.7578C206.779 22.2891 206.661 21.9115 206.453 21.625C206.297 21.4427 205.932 21.2083 205.359 20.9219C204.812 20.6354 204.148 20.3229 203.367 19.9844C202.612 19.6458 201.805 19.2943 200.945 18.9297C200.112 18.5651 199.318 18.2005 198.562 17.8359C197.833 17.4453 197.221 17.0807 196.727 16.7422C196.258 16.3776 195.997 16.0521 195.945 15.7656C195.893 15.349 195.854 14.8932 195.828 14.3984C195.802 13.8776 195.828 13.3698 195.906 12.875C196.01 12.3542 196.193 11.8594 196.453 11.3906C196.74 10.9219 197.156 10.5312 197.703 10.2188C198.068 10.0104 198.549 9.85417 199.148 9.75C199.747 9.64583 200.411 9.59375 201.141 9.59375C201.87 9.56771 202.625 9.59375 203.406 9.67188C204.188 9.72396 204.93 9.80208 205.633 9.90625C206.362 9.98438 207.013 10.0885 207.586 10.2188C208.185 10.349 208.641 10.4661 208.953 10.5703C209.318 10.7005 209.708 10.7135 210.125 10.6094C210.49 10.5312 210.88 10.362 211.297 10.1016C211.714 9.84115 212.143 9.3724 212.586 8.69531ZM231.219 8.69531C230.984 9.26823 230.776 9.78906 230.594 10.2578C230.438 10.7266 230.294 11.1432 230.164 11.5078C230.034 11.9245 229.917 12.2891 229.812 12.6016C229.708 12.9661 229.591 13.3828 229.461 13.8516C229.331 14.2682 229.161 14.7891 228.953 15.4141C228.771 16.013 228.549 16.7292 228.289 17.5625C228.081 16.3125 227.703 15.3229 227.156 14.5938C226.609 13.8385 226.049 13.2526 225.477 12.8359C224.799 12.3672 224.07 12.0286 223.289 11.8203C221.883 11.5859 220.867 11.612 220.242 11.8984C219.617 12.1849 219.201 12.5495 218.992 12.9922C218.888 13.1745 218.771 13.4089 218.641 13.6953C218.536 13.9557 218.445 14.2292 218.367 14.5156C218.315 14.8021 218.302 15.0885 218.328 15.375C218.354 15.6615 218.471 15.8958 218.68 16.0781C218.81 16.2083 219.148 16.3906 219.695 16.625C220.242 16.8333 220.893 17.0807 221.648 17.3672C222.43 17.6276 223.25 17.9141 224.109 18.2266C224.995 18.5391 225.828 18.8516 226.609 19.1641C227.391 19.4766 228.068 19.7891 228.641 20.1016C229.214 20.4141 229.591 20.7005 229.773 20.9609C229.93 21.2214 230.099 21.5729 230.281 22.0156C230.49 22.4323 230.633 22.901 230.711 23.4219C230.815 23.9167 230.841 24.4375 230.789 24.9844C230.763 25.5052 230.62 26.026 230.359 26.5469C230.099 27.0677 229.682 27.5495 229.109 27.9922C228.562 28.4349 227.82 28.7995 226.883 29.0859C225.789 29.4245 224.734 29.5156 223.719 29.3594C222.703 29.2031 221.766 28.9688 220.906 28.6562C220.073 28.3438 219.344 28.0443 218.719 27.7578C218.094 27.4453 217.651 27.3151 217.391 27.3672C217.104 27.4193 216.779 27.5625 216.414 27.7969C216.049 28.0312 215.698 28.2786 215.359 28.5391C215.047 28.7734 214.773 28.9948 214.539 29.2031C214.305 29.3854 214.188 29.4505 214.188 29.3984C214.188 29.3464 214.227 29.1901 214.305 28.9297C214.409 28.6693 214.513 28.3568 214.617 27.9922C214.747 27.6016 214.865 27.1849 214.969 26.7422C215.099 26.2734 215.19 25.8307 215.242 25.4141C215.294 25.0755 215.359 24.6589 215.438 24.1641C215.49 23.7214 215.555 23.1875 215.633 22.5625C215.737 21.9115 215.854 21.1302 215.984 20.2188C216.115 20.8958 216.297 21.4818 216.531 21.9766C216.792 22.4714 217.039 22.901 217.273 23.2656C217.56 23.6823 217.833 24.0339 218.094 24.3203C218.484 24.6849 218.94 25.0234 219.461 25.3359C220.008 25.6484 220.555 25.9219 221.102 26.1562C221.648 26.3646 222.169 26.4948 222.664 26.5469C223.159 26.599 223.576 26.5469 223.914 26.3906C224.253 26.2344 224.539 25.9479 224.773 25.5312C225.034 25.1146 225.216 24.6589 225.32 24.1641C225.424 23.6693 225.464 23.2005 225.438 22.7578C225.411 22.2891 225.294 21.9115 225.086 21.625C224.93 21.4427 224.565 21.2083 223.992 20.9219C223.445 20.6354 222.781 20.3229 222 19.9844C221.245 19.6458 220.438 19.2943 219.578 18.9297C218.745 18.5651 217.951 18.2005 217.195 17.8359C216.466 17.4453 215.854 17.0807 215.359 16.7422C214.891 16.3776 214.63 16.0521 214.578 15.7656C214.526 15.349 214.487 14.8932 214.461 14.3984C214.435 13.8776 214.461 13.3698 214.539 12.875C214.643 12.3542 214.826 11.8594 215.086 11.3906C215.372 10.9219 215.789 10.5312 216.336 10.2188C216.701 10.0104 217.182 9.85417 217.781 9.75C218.38 9.64583 219.044 9.59375 219.773 9.59375C220.503 9.56771 221.258 9.59375 222.039 9.67188C222.82 9.72396 223.562 9.80208 224.266 9.90625C224.995 9.98438 225.646 10.0885 226.219 10.2188C226.818 10.349 227.273 10.4661 227.586 10.5703C227.951 10.7005 228.341 10.7135 228.758 10.6094C229.122 10.5312 229.513 10.362 229.93 10.1016C230.346 9.84115 230.776 9.3724 231.219 8.69531Z" fill="#CEAB0F"/>
</svg>
