<svg width="44" height="24" viewBox="0 0 44 24" fill="none" xmlns="http://www.w3.org/2000/svg">
<rect x="0.5" y="0.5" width="42.7647" height="23" rx="6.5" fill="white"/>
<rect x="0.5" y="0.5" width="42.7647" height="23" rx="6.5" stroke="#E6E9EE"/>
<g clip-path="url(#clip0_23884_13385)">
<path d="M24.647 7.3584H19.103V17.3477H24.647V7.3584Z" fill="#FF5F00"/>
<path d="M19.455 12.3529C19.4541 11.3909 19.6715 10.4412 20.0908 9.57591C20.5101 8.71057 21.1202 7.95222 21.875 7.35826C20.9403 6.62161 19.8177 6.1635 18.6357 6.03628C17.4536 5.90907 16.2597 6.11789 15.1904 6.63887C14.1211 7.15986 13.2195 7.97199 12.5888 8.98244C11.958 9.99289 11.6235 11.1609 11.6235 12.3529C11.6235 13.545 11.958 14.713 12.5888 15.7234C13.2195 16.7339 14.1211 17.546 15.1904 18.067C16.2597 18.588 17.4536 18.7968 18.6357 18.6696C19.8177 18.5424 20.9403 18.0843 21.875 17.3476C21.1202 16.7536 20.5101 15.9953 20.0908 15.1299C19.6716 14.2646 19.4541 13.315 19.455 12.3529Z" fill="#EB001B"/>
<path d="M32.1259 12.3529C32.1259 13.545 31.7915 14.7129 31.1608 15.7234C30.5301 16.7338 29.6285 17.546 28.5592 18.067C27.49 18.588 26.296 18.7968 25.114 18.6696C23.9319 18.5424 22.8094 18.0843 21.8748 17.3476C22.6289 16.753 23.2385 15.9946 23.6577 15.1294C24.0769 14.2642 24.2947 13.3148 24.2947 12.3529C24.2947 11.391 24.0769 10.4417 23.6577 9.5765C23.2385 8.7113 22.6289 7.95282 21.8748 7.35826C22.8094 6.62161 23.9319 6.16349 25.114 6.03628C26.296 5.90907 27.49 6.1179 28.5592 6.63889C29.6285 7.15988 30.5301 7.97201 31.1608 8.98246C31.7915 9.99291 32.1259 11.1609 32.1259 12.3529Z" fill="#F79E1B"/>
<path d="M31.5215 16.2896V16.085H31.6037V16.0434H31.3943V16.085H31.4766V16.2896H31.5215ZM31.9281 16.2896V16.043H31.8639L31.7901 16.2126L31.7162 16.043H31.652V16.2896H31.6973V16.1035L31.7666 16.2639H31.8136L31.8828 16.1031V16.2896H31.9281Z" fill="#F79E1B"/>
</g>
<defs>
<clipPath id="clip0_23884_13385">
<rect width="26.8235" height="19.0588" fill="white" transform="translate(8.4707 2.82373)"/>
</clipPath>
</defs>
</svg>
