<svg width="20" height="20" viewBox="0 0 20 20" fill="none" xmlns="http://www.w3.org/2000/svg">
<path d="M17.4996 5.60839C17.4829 5.60839 17.4579 5.60839 17.4329 5.60839C13.0246 5.16673 8.62456 5.00006 4.26623 5.44173L2.56623 5.60839C2.21623 5.64173 1.9079 5.39173 1.87456 5.04173C1.84123 4.69173 2.09123 4.39173 2.4329 4.35839L4.1329 4.19173C8.56623 3.74173 13.0579 3.91673 17.5579 4.35839C17.8996 4.39173 18.1496 4.70006 18.1162 5.04173C18.0912 5.36673 17.8162 5.60839 17.4996 5.60839Z" fill="#1C212D"/>
<path d="M7.08314 4.76699C7.0498 4.76699 7.01647 4.76699 6.9748 4.75866C6.64147 4.70033 6.40814 4.37533 6.46647 4.04199L6.6498 2.95033C6.78314 2.15033 6.96647 1.04199 8.90814 1.04199H11.0915C13.0415 1.04199 13.2248 2.19199 13.3498 2.95866L13.5331 4.04199C13.5915 4.38366 13.3581 4.70866 13.0248 4.75866C12.6831 4.81699 12.3581 4.58366 12.3081 4.25033L12.1248 3.16699C12.0081 2.44199 11.9831 2.30033 11.0998 2.30033H8.91647C8.03314 2.30033 8.01647 2.41699 7.89147 3.15866L7.6998 4.24199C7.6498 4.55033 7.38314 4.76699 7.08314 4.76699Z" fill="#1C212D"/>
<path d="M12.6745 18.9586H7.32451C4.41618 18.9586 4.29951 17.3503 4.20784 16.0503L3.66618 7.65864C3.64118 7.31697 3.90784 7.01697 4.24951 6.99197C4.59951 6.97531 4.89118 7.23364 4.91618 7.57531L5.45784 15.967C5.54951 17.2336 5.58284 17.7086 7.32451 17.7086H12.6745C14.4245 17.7086 14.4578 17.2336 14.5412 15.967L15.0828 7.57531C15.1078 7.23364 15.4078 6.97531 15.7495 6.99197C16.0912 7.01697 16.3578 7.30864 16.3328 7.65864L15.7912 16.0503C15.6995 17.3503 15.5828 18.9586 12.6745 18.9586Z" fill="#1C212D"/>
<path d="M11.3834 14.375H8.6084C8.26673 14.375 7.9834 14.0917 7.9834 13.75C7.9834 13.4083 8.26673 13.125 8.6084 13.125H11.3834C11.7251 13.125 12.0084 13.4083 12.0084 13.75C12.0084 14.0917 11.7251 14.375 11.3834 14.375Z" fill="#1C212D"/>
<path d="M12.0832 11.042H7.9165C7.57484 11.042 7.2915 10.7587 7.2915 10.417C7.2915 10.0753 7.57484 9.79199 7.9165 9.79199H12.0832C12.4248 9.79199 12.7082 10.0753 12.7082 10.417C12.7082 10.7587 12.4248 11.042 12.0832 11.042Z" fill="#1C212D"/>
</svg>
