<svg width="44" height="24" viewBox="0 0 44 24" fill="none" xmlns="http://www.w3.org/2000/svg">
<g clip-path="url(#clip0_23884_9827)">
<rect width="43.7647" height="24" rx="7" fill="white"/>
<path d="M19.9078 16.6578H17.4841L18.9989 7.34847H21.4229L19.9078 16.6578ZM15.4451 7.34847L13.1345 13.7515L12.8611 12.3727L12.8613 12.3732L12.0458 8.18668C12.0458 8.18668 11.9472 7.34847 10.896 7.34847H7.07607L7.03125 7.5061C7.03125 7.5061 8.1994 7.74915 9.56652 8.57017L11.6722 16.6581H14.1975L18.0536 7.34847H15.4451ZM34.5089 16.6578H36.7344L34.794 7.34823H32.8457C31.946 7.34823 31.7268 8.042 31.7268 8.042L28.112 16.6578H30.6386L31.1439 15.275H34.225L34.5089 16.6578ZM31.8419 13.3648L33.1153 9.88101L33.8318 13.3648H31.8419ZM28.3015 9.58716L28.6474 7.58803C28.6474 7.58803 27.5801 7.18213 26.4675 7.18213C25.2647 7.18213 22.4085 7.70781 22.4085 10.264C22.4085 12.669 25.7608 12.6989 25.7608 13.9622C25.7608 15.2255 22.7539 14.9991 21.7615 14.2025L21.4012 16.2928C21.4012 16.2928 22.4834 16.8185 24.1369 16.8185C25.7909 16.8185 28.2861 15.9621 28.2861 13.6313C28.2861 11.2108 24.9037 10.9854 24.9037 9.93305C24.9039 8.88045 27.2644 9.01566 28.3015 9.58716Z" fill="#2566AF"/>
<path d="M12.8613 12.3729L12.0458 8.18635C12.0458 8.18635 11.9472 7.34814 10.896 7.34814H7.07607L7.03125 7.50577C7.03125 7.50577 8.86728 7.88628 10.6283 9.31192C12.3122 10.6746 12.8613 12.3729 12.8613 12.3729Z" fill="#E6A540"/>
</g>
<rect x="0.5" y="0.5" width="42.7647" height="23" rx="6.5" stroke="#E6E9EE"/>
<defs>
<clipPath id="clip0_23884_9827">
<rect width="43.7647" height="24" rx="7" fill="white"/>
</clipPath>
</defs>
</svg>
